<svg width="3884" height="2059" xmlns="http://www.w3.org/2000/svg" xmlns:xlink="http://www.w3.org/1999/xlink" overflow="hidden"><defs><clipPath id="clip0"><rect x="191" y="164" width="3884" height="2059"/></clipPath></defs><g clip-path="url(#clip0)" transform="translate(-191 -164)"><rect x="201.5" y="166.5" width="502" height="392" stroke="#FFFFFF" stroke-width="4.58333" stroke-miterlimit="8" fill="#A3B0BC"/><text fill="#303942" font-family="Calibri,Calibri_MSFontService,sans-serif" font-weight="700" font-size="110" transform="matrix(1 0 0 1 266.945 333)">Housing <tspan font-size="110" x="64.7396" y="132">stock</tspan></text><rect x="201.5" y="559.5" width="502" height="392" stroke="#FFFFFF" stroke-width="4.58333" stroke-miterlimit="8" fill="#A3B0BC"/><text fill="#303942" font-family="Calibri,Calibri_MSFontService,sans-serif" font-weight="700" font-size="110" transform="matrix(1 0 0 1 272.102 726)">Interest <tspan font-size="110" x="63.8688" y="132">rates</tspan></text><rect x="201.5" y="951.5" width="502" height="392" stroke="#FFFFFF" stroke-width="4.58333" stroke-miterlimit="8" fill="#A3B0BC"/><text fill="#303942" font-family="Calibri,Calibri_MSFontService,sans-serif" font-weight="700" font-size="110" transform="matrix(1 0 0 1 282.701 1184)">Income</text><rect x="201.5" y="1343.5" width="502" height="392" stroke="#FFFFFF" stroke-width="4.58333" stroke-miterlimit="8" fill="#A3B0BC"/><text fill="#303942" font-family="Calibri,Calibri_MSFontService,sans-serif" font-weight="700" font-size="110" transform="matrix(1 0 0 1 284.706 1576)">Wealth</text><rect x="201.5" y="1735.5" width="502" height="392" stroke="#FFFFFF" stroke-width="4.58333" stroke-miterlimit="8" fill="#A3B0BC"/><text fill="#303942" font-family="Calibri,Calibri_MSFontService,sans-serif" font-weight="700" font-size="110" transform="matrix(1 0 0 1 257.206 1968)">Location</text><path d="M890 346 1605.83 346 1660 400.168 1660 671 890 671Z" fill="#4DADB5" fill-rule="evenodd"/><text fill="#FFFFFF" font-family="Calibri,Calibri_MSFontService,sans-serif" font-weight="700" font-size="128" transform="matrix(1 0 0 1 1055.69 565)">Renters</text><path d="M890 880 1605.83 880 1660 934.168 1660 1205 890 1205Z" fill="#0070C0" fill-rule="evenodd"/><text fill="#FFFFFF" font-family="Calibri,Calibri_MSFontService,sans-serif" font-weight="700" font-size="128" transform="matrix(1 0 0 1 977.777 1099)">First<tspan font-size="128" x="261.25" y="0">hom</tspan><tspan font-size="128" x="503.021" y="0">e</tspan></text><path d="M890 1414 1605.83 1414 1660 1468.17 1660 1739 890 1739Z" fill="#4C5974" fill-rule="evenodd"/><text fill="#FFFFFF" font-family="Calibri,Calibri_MSFontService,sans-serif" font-weight="700" font-size="128" transform="matrix(1 0 0 1 1016.74 1633)">Investors</text><path d="M2056 347 2771.83 347 2826 401.168 2826 671.999 2056 671.999Z" fill="#4DADB5" fill-rule="evenodd"/><text fill="#FFFFFF" font-family="Calibri,Calibri_MSFontService,sans-serif" font-weight="700" font-size="128" transform="matrix(1 0 0 1 2221.57 566)">Renters</text><path d="M2056 881 2771.83 881 2826 935.168 2826 1206 2056 1206Z" fill="#0070C0" fill-rule="evenodd"/><text fill="#FFFFFF" font-family="Calibri,Calibri_MSFontService,sans-serif" font-weight="700" font-size="128" transform="matrix(1 0 0 1 2143.65 1100)">First<tspan font-size="128" x="261.25" y="0">hom</tspan><tspan font-size="128" x="503.021" y="0">e</tspan></text><path d="M2056 1415 2771.83 1415 2826 1469.17 2826 1740 2056 1740Z" fill="#4C5974" fill-rule="evenodd"/><text fill="#FFFFFF" font-family="Calibri,Calibri_MSFontService,sans-serif" font-weight="700" font-size="128" transform="matrix(1 0 0 1 2182.61 1634)">Investors</text><path d="M3251 346 3965.83 346 4020 400.167 4020 670.994 3251 670.994Z" fill="#4DADB5" fill-rule="evenodd"/><text fill="#FFFFFF" font-family="Calibri,Calibri_MSFontService,sans-serif" font-weight="700" font-size="128" transform="matrix(1 0 0 1 3415.86 565)">Renters</text><path d="M3251 880 3965.83 880 4020 934.167 4020 1204.99 3251 1204.99Z" fill="#0070C0" fill-rule="evenodd"/><text fill="#FFFFFF" font-family="Calibri,Calibri_MSFontService,sans-serif" font-weight="700" font-size="128" transform="matrix(1 0 0 1 3337.94 1099)">First<tspan font-size="128" x="261.25" y="0">hom</tspan><tspan font-size="128" x="503.021" y="0">e</tspan></text><path d="M3251 1414 3965.83 1414 4020 1468.17 4020 1738.99 3251 1738.99Z" fill="#4C5974" fill-rule="evenodd"/><text fill="#FFFFFF" font-family="Calibri,Calibri_MSFontService,sans-serif" font-weight="700" font-size="128" transform="matrix(1 0 0 1 3376.9 1633)">Investors</text><path d="M1284.17 671 1284.17 726 1265.83 726 1265.83 671ZM1284.17 744.333 1284.17 784.47 1275 784.47 1284.17 775.303 1284.17 799.333 1265.83 799.333 1265.83 766.136 1275 766.136 1265.83 775.303 1265.83 744.333ZM1284.17 817.666 1284.17 842.94 1265.83 842.94 1265.83 817.666ZM1275 842.94 1302.5 824.606 1275 879.606 1247.5 824.606Z" fill="#75889B"/><path d="M1284.17 1205 1284.17 1260 1265.83 1260 1265.83 1205ZM1284.17 1278.33 1284.17 1318.47 1275 1318.47 1284.17 1309.3 1284.17 1333.33 1265.83 1333.33 1265.83 1300.14 1275 1300.14 1265.83 1309.3 1265.83 1278.33ZM1284.17 1351.67 1284.17 1376.94 1265.83 1376.94 1265.83 1351.67ZM1275 1376.94 1302.5 1358.61 1275 1413.61 1247.5 1358.61Z" fill="#75889B"/><path d="M1284.17 1738.9 1284.17 1793.9 1265.83 1793.9 1265.83 1738.9ZM1284.17 1812.24 1284.17 1821.4 1275 1812.24 1320.83 1812.24 1320.83 1830.57 1265.83 1830.57 1265.83 1812.24ZM1339.17 1812.24 1394.17 1812.24 1394.17 1830.57 1339.17 1830.57ZM1412.5 1812.24 1467.5 1812.24 1467.5 1830.57 1412.5 1830.57ZM1485.83 1812.24 1540.83 1812.24 1540.83 1830.57 1485.83 1830.57ZM1559.17 1812.24 1614.17 1812.24 1614.17 1830.57 1559.17 1830.57ZM1632.5 1812.24 1687.5 1812.24 1687.5 1830.57 1632.5 1830.57ZM1705.83 1812.24 1742.23 1812.24 1733.07 1821.4 1733.07 1802.81 1751.4 1802.81 1751.4 1830.57 1705.83 1830.57ZM1733.07 1784.47 1733.07 1729.47 1751.4 1729.47 1751.4 1784.47ZM1733.07 1711.14 1733.07 1656.14 1751.4 1656.14 1751.4 1711.14ZM1733.07 1637.81 1733.07 1582.81 1751.4 1582.81 1751.4 1637.81ZM1733.07 1564.47 1733.07 1509.47 1751.4 1509.47 1751.4 1564.47ZM1733.07 1491.14 1733.07 1436.14 1751.4 1436.14 1751.4 1491.14ZM1733.07 1417.81 1733.07 1362.81 1751.4 1362.81 1751.4 1417.81ZM1733.07 1344.47 1733.07 1289.47 1751.4 1289.47 1751.4 1344.47ZM1733.07 1271.14 1733.07 1216.14 1751.4 1216.14 1751.4 1271.14ZM1733.07 1197.81 1733.07 1142.81 1751.4 1142.81 1751.4 1197.81ZM1733.07 1124.47 1733.07 1069.47 1751.4 1069.47 1751.4 1124.47ZM1733.07 1051.14 1733.07 996.139 1751.4 996.139 1751.4 1051.14ZM1733.07 977.805 1733.07 922.805 1751.4 922.805 1751.4 977.805ZM1733.07 904.472 1733.07 849.472 1751.4 849.472 1751.4 904.472ZM1733.07 831.139 1733.07 776.139 1751.4 776.139 1751.4 831.139ZM1733.07 757.805 1733.07 702.805 1751.4 702.805 1751.4 757.805ZM1733.07 684.472 1733.07 629.472 1751.4 629.472 1751.4 684.472ZM1733.07 611.139 1733.07 556.139 1751.4 556.139 1751.4 611.139ZM1733.07 537.805 1733.07 482.805 1751.4 482.805 1751.4 537.805ZM1733.07 464.472 1733.07 409.472 1751.4 409.472 1751.4 464.472ZM1733.07 391.139 1733.07 336.139 1751.4 336.139 1751.4 391.139ZM1733.07 317.805 1733.07 263.499 1742.23 272.665 1741.54 272.665 1741.54 254.332 1751.4 254.332 1751.4 317.805ZM1723.21 272.665 1668.21 272.665 1668.21 254.332 1723.21 254.332ZM1649.87 272.665 1594.87 272.665 1594.87 254.332 1649.87 254.332ZM1576.54 272.665 1521.54 272.665 1521.54 254.332 1576.54 254.332ZM1503.21 272.665 1448.21 272.665 1448.21 254.332 1503.21 254.332ZM1429.87 272.665 1374.87 272.665 1374.87 254.332 1429.87 254.332ZM1356.54 272.665 1301.54 272.665 1301.54 254.332 1356.54 254.332ZM1283.21 272.665 1275 272.665 1284.17 263.499 1284.17 300.167 1265.83 300.167 1265.83 254.332 1283.21 254.332ZM1302.5 291 1275 346 1247.5 291Z" fill="#75889B"/><path d="M1902 225 1902 2026.52" stroke="#D9DDE6" stroke-width="18.3333" stroke-miterlimit="8" stroke-dasharray="146.667 55" fill="none" fill-rule="evenodd"/><text fill="#303942" font-family="Calibri,Calibri_MSFontService,sans-serif" font-weight="700" font-size="128" transform="matrix(1 0 0 1 822.755 2111)">Interrelationships</text><path d="M0.0185648-9.16665 388.172-8.38054 388.135 9.95275-0.0185648 9.16665ZM388.154 0.786108 369.876-26.751 424.82 0.860367 369.765 28.2489Z" fill="#4DADB5" transform="matrix(1 0 0 -1 2826 509.86)"/><path d="M2833.17 504.287 3235.13 1008.59 3220.8 1020.02 2818.83 515.714ZM3227.97 1014.3 3238.04 982.826 3250.82 1042.98 3195.03 1017.11Z" fill="#4DADB5"/><path d="M7.17715-5.7023 409.188 500.286 394.834 511.69-7.17715 5.7023ZM402.011 505.988 412.138 474.527 424.82 534.697 369.075 508.741Z" fill="#0070C0" transform="matrix(1 0 0 -1 2826 1043.7)"/><path d="M0.0185648-9.16665 388.172-8.38054 388.135 9.95275-0.0185648 9.16665ZM388.154 0.786108 369.876-26.751 424.82 0.860367 369.765 28.2489Z" fill="#0070C0" transform="matrix(1 0 0 -1 2826 1043.86)"/><path d="M2833.17 1038.29 3235.13 1542.59 3220.8 1554.02 2818.83 1049.71ZM3227.97 1548.3 3238.04 1516.83 3250.82 1576.98 3195.03 1551.11Z" fill="#0070C0"/><path d="M0.0185648-9.16665 388.172-8.38054 388.135 9.95275-0.0185648 9.16665ZM388.154 0.786108 369.876-26.751 424.82 0.860367 369.765 28.2489Z" fill="#4C5974" transform="matrix(1 0 0 -1 2826 1577.86)"/><text fill="#303942" font-family="Calibri,Calibri_MSFontService,sans-serif" font-weight="700" font-size="128" transform="matrix(1 0 0 1 2741.97 2110)">Transitions</text><path d="M36.6659-9.16666 54.9993-9.16666 54.9993 9.16668 36.6659 9.16667ZM73.3326-9.16665 91.6659-9.16665 91.6659 9.16668 73.3326 9.16668ZM109.999-9.16665 128.333-9.16664 128.333 9.16669 109.999 9.16669ZM146.666-9.16664 164.999-9.16664 164.999 9.1667 146.666 9.16669ZM183.333-9.16663 201.666-9.16663 201.666 9.1667 183.333 9.1667ZM219.999-9.16663 238.333-9.16662 238.333 9.16671 219.999 9.16671ZM256.666-9.16662 274.999-9.16662 274.999 9.16672 256.666 9.16671ZM293.333-9.16661 311.666-9.16661 311.666 9.16672 293.333 9.16672ZM329.999-9.16661 348.333-9.1666 348.333 9.16673 329.999 9.16673ZM366.666-9.1666 384.999-9.1666 384.999 9.16674 366.666 9.16673ZM403.333-9.16659 421.666-9.16659 421.666 9.16674 403.333 9.16674ZM439.999-9.16659 458.333-9.16658 458.333 9.16675 439.999 9.16675ZM476.666-9.16658 494.999-9.16658 494.999 9.16676 476.666 9.16675ZM513.333-9.16657 531.666-9.16657 531.666 9.16676 513.333 9.16676ZM549.999-9.16657 568.333-9.16656 568.333 9.16677 549.999 9.16677ZM586.666-9.16656 604.999-9.16656 604.999 9.16678 586.666 9.16677ZM623.333-9.16655 641.666-9.16655 641.666 9.16678 623.333 9.16678ZM659.999-9.16655 678.333-9.16654 678.333 9.16679 659.999 9.16679ZM696.666-9.16654 714.999-9.16654 714.999 9.1668 696.666 9.16679ZM733.333-9.16653 751.666-9.16653 751.666 9.1668 733.333 9.1668ZM769.999-9.16652 788.333-9.16652 788.333 9.16681 769.999 9.16681ZM806.666-9.16652 824.999-9.16652 824.999 9.16682 806.666 9.16681ZM843.333-9.16651 861.666-9.16651 861.666 9.16683 843.333 9.16682ZM879.999-9.1665 898.333-9.1665 898.333 9.16683 879.999 9.16683ZM916.666-9.1665 934.999-9.16649 934.999 9.16684 916.666 9.16683ZM953.333-9.16649 971.666-9.16649 971.666 9.16685 953.333 9.16684ZM989.999-9.16648 1008.33-9.16648 1008.33 9.16685 989.999 9.16685ZM1026.67-9.16648 1045-9.16648 1045 9.16686 1026.67 9.16686ZM1063.33-9.16647 1081.67-9.16647 1081.67 9.16687 1063.33 9.16686ZM1100-9.16646 1118.33-9.16646 1118.33 9.16687 1100 9.16687ZM1136.67-9.16646 1155-9.16645 1155 9.16688 1136.67 9.16687ZM1173.33-9.16645 1191.67-9.16645 1191.67 9.16689 1173.33 9.16688ZM1210-9.16644 1228.33-9.16644 1228.33 9.16689 1210 9.16689ZM1246.67-9.16644 1265-9.16643 1265 9.1669 1246.67 9.1669ZM1283.33-9.16643 1301.67-9.16643 1301.67 9.16691 1283.33 9.1669ZM1320-9.16642 1338.33-9.16642 1338.33 9.16691 1320 9.16691ZM1356.67-9.16642 1375-9.16641 1375 9.16692 1356.67 9.16692ZM1393.33-9.16641 1411.67-9.16641 1411.67 9.16693 1393.33 9.16692ZM1430-9.1664 1448.33-9.1664 1448.33 9.16693 1430 9.16693ZM1466.67-9.1664 1485-9.16639 1485 9.16694 1466.67 9.16694ZM1503.33-9.16639 1521.67-9.16639 1521.67 9.16695 1503.33 9.16694ZM1540-9.16638 1558.33-9.16638 1558.33 9.16695 1540 9.16695ZM1576.67-9.16638 1595-9.16637 1595 9.16696 1576.67 9.16696ZM1613.33-9.16637 1631.67-9.16637 1631.67 9.16697 1613.33 9.16696ZM1650-9.16636 1668.33-9.16636 1668.33 9.16697 1650 9.16697ZM1686.67-9.16636 1705-9.16635 1705 9.16698 1686.67 9.16698ZM1723.33-9.16635 1741.67-9.16635 1741.67 9.16699 1723.33 9.16698ZM1760-9.16634 1778.33-9.16634 1778.33 9.16699 1760 9.16699ZM1796.67-9.16634 1815-9.16633 1815 9.167 1796.67 9.167ZM1833.33-9.16633 1851.67-9.16633 1851.67 9.16701 1833.33 9.167ZM1870-9.16632 1888.33-9.16632 1888.33 9.16701 1870 9.16701ZM1906.67-9.16632 1925-9.16631 1925 9.16702 1906.67 9.16702ZM1943.33-9.16631 1961.67-9.16631 1961.67 9.16703 1943.33 9.16702ZM36.6667 6.73848e-06 55 27.5 0 0 55-27.5Z" fill="#8C99B3" transform="matrix(-1 0 0 1 4019.75 1837)"/><path d="M3635 1782 3635 1892.19" stroke="#8C99B3" stroke-width="13.75" stroke-miterlimit="8" fill="none" fill-rule="evenodd"/><path d="M2441 1779 2441 1889.19" stroke="#8C99B3" stroke-width="13.75" stroke-miterlimit="8" fill="none" fill-rule="evenodd"/><text fill="#303942" font-family="Calibri,Calibri_MSFontService,sans-serif" font-weight="700" font-size="73" transform="matrix(1 0 0 1 2326.72 1982)">Period 1<tspan font-size="73" x="1175.95" y="0">Period 2</tspan></text></g></svg>