<?xml version="1.0" encoding="UTF-8" standalone="no"?>
<svg
   width="96"
   height="96"
   overflow="hidden"
   version="1.1"
   id="svg21"
   sodipodi:docname="cost-benefit-analysis.svg"
   inkscape:version="1.1 (c68e22c387, 2021-05-23)"
   xmlns:inkscape="http://www.inkscape.org/namespaces/inkscape"
   xmlns:sodipodi="http://sodipodi.sourceforge.net/DTD/sodipodi-0.dtd"
   xmlns="http://www.w3.org/2000/svg"
   xmlns:svg="http://www.w3.org/2000/svg">
  <sodipodi:namedview
     id="namedview23"
     pagecolor="#ffffff"
     bordercolor="#666666"
     borderopacity="1.0"
     inkscape:pageshadow="2"
     inkscape:pageopacity="0.0"
     inkscape:pagecheckerboard="0"
     showgrid="false"
     inkscape:zoom="9.0833333"
     inkscape:cx="47.944954"
     inkscape:cy="47.944954"
     inkscape:window-width="1920"
     inkscape:window-height="1057"
     inkscape:window-x="-8"
     inkscape:window-y="-8"
     inkscape:window-maximized="1"
     inkscape:current-layer="svg21" />
  <defs
     id="defs5">
    <clipPath
       id="clip0">
      <rect
         x="0"
         y="0"
         width="96"
         height="96"
         id="rect2" />
    </clipPath>
  </defs>
  <g
     clip-path="url(#clip0)"
     id="g19"
     style="fill:#003399;fill-opacity:1">
    <path
       d="M82 30C82 27.7909 80.2091 26 78 26L44 26 44 11 22 11 22 26 18 26C15.7909 26 14 27.7909 14 30L14 42 8 56 8 82 88 82 88 56 82 42ZM24 13 42 13 42 41 24 41ZM86 80 10 80 10 65 86 65ZM86 56.411 86 63 10 63 10 56.411 15.838 42.788 16 42.411 16 30C16 28.8954 16.8954 28 18 28L22 28 22 43 44 43 44 28 78 28C79.1046 28 80 28.8954 80 30L80 42.411 80.162 42.788Z"
       id="path7"
       style="fill:#003399;fill-opacity:1" />
    <path
       d="M28 19 38 19 38 21 28 21Z"
       id="path9"
       style="fill:#003399;fill-opacity:1" />
    <path
       d="M28 26 38 26 38 28 28 28Z"
       id="path11"
       style="fill:#003399;fill-opacity:1" />
    <path
       d="M28 33 38 33 38 35 28 35Z"
       id="path13"
       style="fill:#003399;fill-opacity:1" />
    <path
       d="M51 43 76 43 76 32 51 32ZM53 34 74 34 74 41 53 41Z"
       id="path15"
       style="fill:#003399;fill-opacity:1" />
    <path
       d="M48 76C49.933 76 51.5 74.433 51.5 72.5 51.5 70.567 49.933 69 48 69 46.067 69 44.5 70.567 44.5 72.5 44.5 74.433 46.067 76 48 76ZM48 71C48.8284 71 49.5 71.6716 49.5 72.5 49.5 73.3284 48.8284 74 48 74 47.1716 74 46.5 73.3284 46.5 72.5 46.5 71.6716 47.1716 71 48 71Z"
       id="path17"
       style="fill:#003399;fill-opacity:1" />
  </g>
</svg>
