<?xml version="1.0" encoding="UTF-8" standalone="no"?>
<svg
   width="96"
   height="96"
   overflow="hidden"
   version="1.1"
   id="svg17"
   sodipodi:docname="economic-research.svg"
   inkscape:version="1.1 (c68e22c387, 2021-05-23)"
   xmlns:inkscape="http://www.inkscape.org/namespaces/inkscape"
   xmlns:sodipodi="http://sodipodi.sourceforge.net/DTD/sodipodi-0.dtd"
   xmlns="http://www.w3.org/2000/svg"
   xmlns:svg="http://www.w3.org/2000/svg">
  <sodipodi:namedview
     id="namedview19"
     pagecolor="#ffffff"
     bordercolor="#666666"
     borderopacity="1.0"
     inkscape:pageshadow="2"
     inkscape:pageopacity="0.0"
     inkscape:pagecheckerboard="0"
     showgrid="false"
     inkscape:zoom="9.0833333"
     inkscape:cx="47.944954"
     inkscape:cy="47.944954"
     inkscape:window-width="1920"
     inkscape:window-height="1057"
     inkscape:window-x="-8"
     inkscape:window-y="-8"
     inkscape:window-maximized="1"
     inkscape:current-layer="svg17" />
  <defs
     id="defs5">
    <clipPath
       id="clip0">
      <rect
         x="0"
         y="0"
         width="96"
         height="96"
         id="rect2" />
    </clipPath>
  </defs>
  <g
     clip-path="url(#clip0)"
     id="g15"
     style="fill:#003399;fill-opacity:1">
    <path
       d="M81 75 81 18 60 18 60 32 44 32 44 20 27 20 27 14 15 14 15 75 14 75 14 82 82 82 82 75ZM62 20 79 20 79 27 62 27ZM62 32 62 29 79 29 79 63 62 63ZM79 65 79 75 62 75 62 65ZM60 34 60 75 44 75 44 34ZM42 22 42 75 27 75 27 22ZM17 16 25 16 25 75 17 75ZM80 80 16 80 16 77 80 77Z"
       id="path7"
       style="fill:#003399;fill-opacity:1" />
    <path
       d="M38 26 31 26 31 33 38 33ZM36 31 33 31 33 28 36 28Z"
       id="path9"
       style="fill:#003399;fill-opacity:1" />
    <path
       d="M54 42C54 43.1046 53.1046 44 52 44 50.8954 44 50 43.1046 50 42 50 40.8954 50.8954 40 52 40 53.1046 40 54 40.8954 54 42Z"
       id="path11"
       style="fill:#003399;fill-opacity:1" />
    <path
       d="M54 65C54 66.1046 53.1046 67 52 67 50.8954 67 50 66.1046 50 65 50 63.8954 50.8954 63 52 63 53.1046 63 54 63.8954 54 65Z"
       id="path13"
       style="fill:#003399;fill-opacity:1" />
  </g>
</svg>
