<?xml version="1.0" encoding="UTF-8" standalone="no"?>
<svg
   width="85"
   height="85"
   overflow="hidden"
   version="1.1"
   id="svg19"
   sodipodi:docname="market-analysis.svg"
   inkscape:version="1.1 (c68e22c387, 2021-05-23)"
   xmlns:inkscape="http://www.inkscape.org/namespaces/inkscape"
   xmlns:sodipodi="http://sodipodi.sourceforge.net/DTD/sodipodi-0.dtd"
   xmlns="http://www.w3.org/2000/svg"
   xmlns:svg="http://www.w3.org/2000/svg">
  <sodipodi:namedview
     id="namedview21"
     pagecolor="#ffffff"
     bordercolor="#666666"
     borderopacity="1.0"
     inkscape:pageshadow="2"
     inkscape:pageopacity="0.0"
     inkscape:pagecheckerboard="0"
     showgrid="false"
     inkscape:zoom="10.258824"
     inkscape:cx="42.548737"
     inkscape:cy="42.548737"
     inkscape:window-width="1920"
     inkscape:window-height="1057"
     inkscape:window-x="-8"
     inkscape:window-y="-8"
     inkscape:window-maximized="1"
     inkscape:current-layer="svg19" />
  <defs
     id="defs5">
    <clipPath
       id="clip0">
      <rect
         x="0"
         y="0"
         width="85"
         height="85"
         id="rect2" />
    </clipPath>
  </defs>
  <g
     clip-path="url(#clip0)"
     id="g17"
     style="fill:#003399;fill-opacity:1">
    <path
       d="M68.7438 9.73958 16.2563 9.73958 10.625 21.9406 10.625 26.5625C10.6276 28.8116 12.0462 30.8154 14.1667 31.5651L14.1667 76.1458 15.9375 76.1458 15.9375 31.875 17.7969 31.875C20.3352 31.8732 22.6734 30.4964 23.9062 28.2776 25.1391 30.4964 27.4773 31.8732 30.0156 31.875L30.1927 31.875C32.731 31.8732 35.0692 30.4964 36.3021 28.2776 37.5349 30.4964 39.8731 31.8732 42.4115 31.875L42.5885 31.875C45.1269 31.8732 47.4651 30.4964 48.6979 28.2776 49.9308 30.4964 52.269 31.8732 54.8073 31.875L54.9844 31.875C57.5227 31.8732 59.8609 30.4964 61.0938 28.2776 62.3266 30.4964 64.6648 31.8732 67.2031 31.875L69.0625 31.875 69.0625 76.1458 70.8333 76.1458 70.8333 31.5651C72.9538 30.8154 74.3724 28.8116 74.375 26.5625L74.375 21.9406ZM17.7969 30.1042 15.9375 30.1042C13.9815 30.1042 12.3958 28.5185 12.3958 26.5625L12.3958 22.3302 17.3896 11.5104 27.0406 11.5104 23.0208 21.9707 23.0208 24.8802C23.0179 27.7641 20.6808 30.1012 17.7969 30.1042ZM35.4167 22.1354 35.4167 24.8802C35.4137 27.7641 33.0766 30.1012 30.1927 30.1042L30.0156 30.1042C27.1317 30.1012 24.7946 27.7641 24.7917 24.8802L24.7917 22.3001 28.9416 11.5104 37.0414 11.5104 35.4273 22.0008ZM42.5885 30.1042 42.4115 30.1042C39.5276 30.1012 37.1904 27.7641 37.1875 24.8802L37.1875 22.2036 38.8326 11.5104 46.1674 11.5104 47.8125 22.2036 47.8125 24.8802C47.8096 27.7641 45.4724 30.1012 42.5885 30.1042ZM54.9844 30.1042 54.8073 30.1042C51.9234 30.1012 49.5863 27.7641 49.5833 24.8802L49.5833 22.1354 47.9577 11.5104 56.0584 11.5104 60.2083 22.3001 60.2083 24.8802C60.2054 27.7641 57.8683 30.1012 54.9844 30.1042ZM72.6042 26.5625C72.6042 28.5185 71.0185 30.1042 69.0625 30.1042L67.2031 30.1042C64.3192 30.1012 61.9821 27.7641 61.9792 24.8802L61.9792 21.9707 57.9558 11.5104 67.6069 11.5104 72.6042 22.3302Z"
       id="path7"
       style="fill:#003399;fill-opacity:1" />
    <path
       d="M21.3536 41.6146 18.6008 63.6402 18.5938 76.1458 20.3646 76.1458 20.3646 71.7188 64.6354 71.7188 64.6354 76.1458 66.4062 76.1458 66.4062 63.75 63.6464 41.6146ZM20.3646 69.9479 20.3646 68.1771 64.6354 68.1771 64.6354 69.9479ZM64.6354 66.4062 20.3646 66.4062 20.3646 63.8058 22.9172 43.3854 62.0828 43.3854 64.6354 63.8058Z"
       id="path9"
       style="fill:#003399;fill-opacity:1" />
    <path
       d="M38.9583 50.4688C38.9583 48.5129 35.8665 46.9271 32.0521 46.9271 28.2377 46.9271 25.1458 48.5129 25.1458 50.4688 25.2396 51.4192 25.8146 52.255 26.6688 52.6823 25.4463 53.1504 24.8347 54.5209 25.3027 55.7434 25.5435 56.372 26.0401 56.8686 26.6688 57.1094 25.8148 57.5368 25.2398 58.3725 25.1458 59.3229 25.1458 61.2788 28.2377 62.8646 32.0521 62.8646 35.8665 62.8646 38.9583 61.2788 38.9583 59.3229 38.8644 58.3725 38.2894 57.5368 37.4354 57.1094 38.6579 56.6413 39.2695 55.2708 38.8013 54.0482 38.5607 53.4197 38.0641 52.923 37.4354 52.6823 38.2896 52.255 38.8646 51.4192 38.9583 50.4688ZM32.0521 61.0938C28.738 61.0938 26.9167 59.7656 26.9167 59.3229 26.9167 58.8802 28.738 57.5521 32.0521 57.5521 35.3662 57.5521 37.1875 58.8802 37.1875 59.3229 37.1875 59.7656 35.3662 61.0938 32.0521 61.0938ZM32.0521 55.7812C30.9767 55.7764 29.9052 55.9112 28.8646 56.1823 27.5967 55.7565 26.9167 55.1615 26.9167 54.8958 26.9167 54.4531 28.738 53.125 32.0521 53.125 35.3662 53.125 37.1875 54.4531 37.1875 54.8958 37.1875 55.1615 36.5075 55.7565 35.2396 56.1823 34.199 55.9112 33.1274 55.7764 32.0521 55.7812ZM32.0521 51.3542C30.9767 51.3493 29.9052 51.4841 28.8646 51.7553 27.5967 51.3294 26.9167 50.7344 26.9167 50.4688 26.9167 50.026 28.738 48.6979 32.0521 48.6979 35.3662 48.6979 37.1875 50.026 37.1875 50.4688 37.1875 50.7344 36.5075 51.3294 35.2396 51.7553 34.199 51.4841 33.1274 51.3493 32.0521 51.3542Z"
       id="path11"
       style="fill:#003399;fill-opacity:1" />
    <path
       d="M50.4688 52.2396C50.4731 49.7946 48.4945 47.809 46.0495 47.8046 43.6045 47.8004 41.6189 49.7789 41.6146 52.2239 41.6125 53.3892 42.07 54.5084 42.8878 55.3385 41.172 57.0803 41.193 59.8834 42.9348 61.5992 44.6767 63.3151 47.4797 63.294 49.1955 61.5521 50.8931 59.8288 50.8931 57.0619 49.1955 55.3385 50.0116 54.5136 50.4692 53.3999 50.4688 52.2396ZM46.0417 49.5833C47.5033 49.5783 48.6922 50.759 48.6974 52.2206 48.7002 53.0454 48.3183 53.8245 47.6646 54.3274 46.6239 53.9048 45.4594 53.9048 44.4187 54.3274 43.2602 53.4361 43.0436 51.7746 43.9349 50.6161 44.4378 49.9623 45.2168 49.5805 46.0417 49.5833ZM46.0417 61.0938C44.5746 61.0938 43.3854 59.9045 43.3854 58.4375 43.3854 56.9705 44.5746 55.7812 46.0417 55.7812 47.5087 55.7812 48.6979 56.9705 48.6979 58.4375 48.6979 59.9045 47.5087 61.0938 46.0417 61.0938Z"
       id="path13"
       style="fill:#003399;fill-opacity:1" />
    <path
       d="M60.2083 52.2396C60.2127 49.7946 58.2341 47.809 55.7891 47.8046 53.3441 47.8004 51.3585 49.7789 51.3542 52.2239 51.3521 53.3892 51.8096 54.5084 52.6274 55.3385 50.9115 57.0803 50.9326 59.8834 52.6744 61.5992 54.4163 63.3151 57.2193 63.294 58.9351 61.5521 60.6327 59.8288 60.6327 57.0619 58.9351 55.3385 59.7512 54.5136 60.2088 53.3999 60.2083 52.2396ZM55.7812 49.5833C57.2429 49.5783 58.4318 50.759 58.437 52.2206 58.4398 53.0454 58.0579 53.8245 57.4042 54.3274 56.3635 53.9048 55.199 53.9048 54.1583 54.3274 52.9998 53.4361 52.7832 51.7746 53.6745 50.6161 54.1774 49.9623 54.9564 49.5805 55.7812 49.5833ZM55.7812 61.0938C54.3142 61.0938 53.125 59.9045 53.125 58.4375 53.125 56.9705 54.3142 55.7812 55.7812 55.7812 57.2483 55.7812 58.4375 56.9705 58.4375 58.4375 58.4375 59.9045 57.2483 61.0938 55.7812 61.0938Z"
       id="path15"
       style="fill:#003399;fill-opacity:1" />
  </g>
</svg>
